<svg xmlns="http://www.w3.org/2000/svg" version="1.1" xmlnsXlink="http://www.w3.org/1999/xlink" xmlnsSvgjs="http://svgjs.dev/svgjs" viewBox="0 0 800 400"><path d="M379.82061767578125,397.3094177246094C382.2122497558594,390.8819122314453,394.91779073079425,369.207763671875,394.17041015625,358.744384765625C393.42302958170575,348.281005859375,374.43947347005206,348.281010945638,375.3363342285156,334.5291442871094C376.2331949869792,320.77727762858075,401.19582112630206,294.170405069987,399.55157470703125,276.2331848144531C397.90732828776044,258.29596455891925,360.2391662597656,239.3124008178711,365.4708557128906,226.90582275390625C370.7025451660156,214.4992446899414,419.5814717610677,213.75186157226562,430.94171142578125,201.79371643066406C442.3019510904948,189.8355712890625,442.45142618815106,166.66666666666666,433.6322937011719,155.15695190429688C424.8131612141927,143.6472371419271,394.31989034016925,142.45142237345377,378.02691650390625,132.7354278564453C361.73394266764325,123.01943333943684,322.4215393066406,110.31389999389648,335.87445068359375,96.8609848022461C349.3273620605469,83.4080696105957,449.0283915201823,64.72346719106038,458.744384765625,52.01793670654297C468.4603780110677,39.31240622202555,407.3243713378906,28.69955070813497,394.17041015625,20.6278018951416C381.0164489746094,12.556053082148233,382.2122497558594,6.427503506342569,379.82061767578125,3.5874438285827637" fill="none" stroke-width="1" stroke="hsl(0, 0%, 65%)" stroke-linecap="round" stroke-dasharray="7 9"></path><defs><linearGradient id="SvgjsLinearGradient1000"><stop stop-color="hsl(37, 99%, 67%)" offset="0"></stop><stop stop-color="hsl(316, 73%, 52%)" offset="1"></stop></linearGradient></defs></svg>